<svg width="28" height="27" viewBox="0 0 28 27" fill="none" xmlns="http://www.w3.org/2000/svg">
<g clip-path="url(#clip0)">
<path d="M27.4959 25.9795L24.3516 18.3355C24.3094 18.2328 24.223 18.1527 24.1148 18.1161L19.2254 16.4595C19.1503 16.4348 19.0676 16.4306 18.991 16.4509L18.2495 16.643C20.1673 14.4014 22.0539 11.3969 22.0539 8.2512C22.0539 3.97932 18.4526 0.503906 14.026 0.503906C12.0577 0.503906 10.1643 1.19824 8.6946 2.45904C8.53118 2.59924 8.51673 2.8404 8.66228 2.99777C8.80788 3.15509 9.05831 3.16906 9.22168 3.0289C10.5461 1.89272 12.2523 1.26705 14.026 1.26705C18.0156 1.26705 21.2614 4.40015 21.2614 8.2512C21.2614 10.4172 20.2901 12.7738 18.3747 15.2558C17.8675 15.913 17.3405 16.518 16.8299 17.0605C16.8188 17.0709 16.8084 17.0822 16.7986 17.0938C15.7747 18.1779 14.8205 19.0071 14.2318 19.4889C14.1127 19.5861 13.9394 19.5861 13.8203 19.4889C13.2316 19.0071 12.2774 18.1779 11.2535 17.0938C11.2437 17.0822 11.2334 17.071 11.2222 17.0605C10.7116 16.518 10.1846 15.9129 9.67741 15.2558C7.76194 12.7738 6.79073 10.4172 6.79073 8.2512C6.79073 6.74015 7.28232 5.30218 8.21245 4.09267C8.34265 3.92331 8.30569 3.68439 8.12987 3.55896C7.954 3.43358 7.70594 3.46913 7.57563 3.63853C6.54373 4.98038 5.99829 6.57541 5.99829 8.2512C5.99829 11.3969 7.88487 14.4015 9.80266 16.643L9.06116 16.4509C8.98406 16.431 8.90222 16.4351 8.82681 16.4595L3.93738 18.1161C3.82917 18.1527 3.74279 18.2328 3.70055 18.3355L1.97999 22.5183C1.89941 22.7143 1.99897 22.936 2.20242 23.0136C2.40571 23.0913 2.63611 22.9954 2.71669 22.7994L4.37075 18.7783L8.45724 17.3938L7.37714 23.6356L1.60679 25.4975L2.13392 24.216C2.2145 24.02 2.11494 23.7983 1.91149 23.7207C1.70809 23.643 1.4778 23.739 1.39722 23.9349L0.55616 25.9795C0.425168 26.2684 0.74553 26.5919 1.05039 26.4819L7.72366 24.3285L13.8912 26.4788C13.9781 26.5087 14.074 26.5087 14.1609 26.4788L20.3284 24.3285L27.0017 26.4819C27.3066 26.592 27.6269 26.2683 27.4959 25.9795ZM13.6299 25.5761L8.17385 23.6739L8.87938 19.5969L9.27732 17.2972L10.7337 17.6743C11.7843 18.7796 12.7504 19.6148 13.3072 20.0704C13.4058 20.1512 13.5151 20.2121 13.6298 20.2546V25.5761H13.6299ZM20.6751 23.6356L20.3907 21.9926C20.3547 21.7847 20.1504 21.6442 19.9348 21.6789C19.7189 21.7135 19.5731 21.9101 19.609 22.118L19.8783 23.6739L14.4223 25.5761V20.2545C14.537 20.212 14.6464 20.1511 14.7449 20.0704C15.3017 19.6148 16.2678 18.7796 17.3184 17.6743L18.7748 17.2972L19.3488 20.6145C19.3812 20.8011 19.549 20.9334 19.7392 20.9334C19.7609 20.9334 19.7828 20.9317 19.8048 20.9282C20.0206 20.8935 20.1665 20.697 20.1305 20.4891L19.5949 17.3938L23.6814 18.7783L26.4453 25.4975L20.6751 23.6356Z" fill="#FFD422"/>
<g clip-path="url(#clip1)">
<path d="M17.5033 4.19678L8.91241 7.85594H13.3868C13.4343 7.85594 13.4798 7.87344 13.5134 7.90461C13.547 7.93578 13.5658 7.97805 13.5658 8.02213V12.174L17.5033 4.19678Z" stroke="#FFD422" stroke-linecap="round" stroke-linejoin="round"/>
</g>
</g>
<defs>
<clipPath id="clip0">
<rect width="27" height="26" fill="white" transform="translate(0.526062 0.382812)"/>
</clipPath>
<clipPath id="clip1">
<rect width="11.4545" height="10.6364" fill="white" transform="translate(7.48062 2.86719)"/>
</clipPath>
</defs>
</svg>
