<svg width="24" height="25" viewBox="0 0 24 25" fill="none" xmlns="http://www.w3.org/2000/svg">
<g clip-path="url(#clip0)">
<path d="M17.5371 23.3867H17.5315C17.2834 23.3867 17.0823 23.5966 17.0823 23.8555C17.0823 24.1143 17.2834 24.3242 17.5315 24.3242H17.5371C17.7852 24.3242 17.9863 24.1143 17.9863 23.8555C17.9863 23.5966 17.7852 23.3867 17.5371 23.3867Z" fill="#FFD422"/>
<path d="M23.575 8.23962L20.3835 4.93283V2.19922C20.3835 1.16534 19.5774 0.324219 18.5866 0.324219H5.8288C4.838 0.324219 4.03192 1.16534 4.03192 2.19922V4.90934L0.839279 8.24075C0.75505 8.32873 0.707703 8.44794 0.707703 8.57225V20.5977C0.707703 22.6525 2.3098 24.3242 4.27899 24.3242H15.5289C15.7769 24.3242 15.9781 24.1143 15.9781 23.8555C15.9781 23.5966 15.7769 23.3867 15.5289 23.3867H4.27899C3.75309 23.3867 3.26263 23.2268 2.84872 22.952L3.69087 22.0732H10.5904C10.8385 22.0732 11.0396 21.8633 11.0396 21.6045C11.0396 21.3456 10.8385 21.1357 10.5904 21.1357H4.58927L9.94782 15.5442C11.194 14.2439 13.2215 14.2439 14.4675 15.5442L21.5666 22.952C21.1528 23.2268 20.6623 23.3867 20.1364 23.3867H19.53C19.2819 23.3867 19.0807 23.5966 19.0807 23.8555C19.0807 24.1143 19.2819 24.3242 19.53 24.3242H20.1364C21.0514 24.3242 21.8868 23.963 22.5194 23.3704C22.5349 23.3579 22.55 23.3448 22.5642 23.33C22.5701 23.3238 22.5754 23.3172 22.581 23.3107C23.2738 22.6305 23.7077 21.6663 23.7077 20.5977V8.57225C23.7077 8.44737 23.66 8.32761 23.575 8.23962ZM20.3835 6.254L22.6221 8.57342L20.3835 10.9093V6.254ZM4.03192 6.2352V10.9093L1.79225 8.57225L4.03192 6.2352ZM2.1811 22.3228C1.82154 21.8477 1.60614 21.2486 1.60614 20.5977V9.70395L7.94012 16.3134L2.1811 22.3228ZM15.1029 14.8813C13.5065 13.2156 10.9089 13.2156 9.31253 14.8813L8.57545 15.6504L4.93036 11.8468V2.19922C4.93036 1.68228 5.3334 1.26172 5.8288 1.26172H18.5866C19.082 1.26172 19.485 1.68228 19.485 2.19922V11.8468L15.84 15.6504L15.1029 14.8813ZM22.8093 20.5977C22.8093 21.2486 22.5939 21.8477 22.2343 22.3228L16.4753 16.3134L22.8093 9.70395V20.5977Z" fill="#FFD422"/>
<path d="M12.4772 4.63672H7.96391C7.71585 4.63672 7.51469 4.84663 7.51469 5.10547C7.51469 5.36431 7.71585 5.57422 7.96391 5.57422H12.4772C12.7253 5.57422 12.9265 5.36431 12.9265 5.10547C12.9265 4.84663 12.7253 4.63672 12.4772 4.63672Z" fill="#FFD422"/>
<path d="M14.8765 4.77406C14.7925 4.68688 14.6766 4.63672 14.5585 4.63672C14.4403 4.63672 14.3244 4.68683 14.2409 4.77406C14.1573 4.8613 14.1093 4.98219 14.1093 5.10547C14.1093 5.22875 14.1573 5.34969 14.2409 5.43683C14.3249 5.52406 14.4403 5.57422 14.5585 5.57422C14.6766 5.57422 14.7925 5.52406 14.8765 5.43683C14.96 5.34969 15.0077 5.22875 15.0077 5.10547C15.0077 4.98219 14.96 4.86125 14.8765 4.77406Z" fill="#FFD422"/>
<path d="M16.4515 8.01172H7.96391C7.71585 8.01172 7.51469 8.22162 7.51469 8.48047C7.51469 8.73931 7.71585 8.94922 7.96391 8.94922H16.4515C16.6995 8.94922 16.9007 8.73931 16.9007 8.48047C16.9007 8.22162 16.6995 8.01172 16.4515 8.01172Z" fill="#FFD422"/>
<path d="M16.4515 11.3867H7.96391C7.71585 11.3867 7.51469 11.5966 7.51469 11.8555C7.51469 12.1143 7.71585 12.3242 7.96391 12.3242H16.4515C16.6996 12.3242 16.9007 12.1143 16.9007 11.8555C16.9007 11.5966 16.6996 11.3867 16.4515 11.3867Z" fill="#FFD422"/>
</g>
<defs>
<clipPath id="clip0">
<rect width="23" height="24" fill="white" transform="translate(0.707703 0.324219)"/>
</clipPath>
</defs>
</svg>
