<svg width="27" height="28" viewBox="0 0 27 28" fill="none" xmlns="http://www.w3.org/2000/svg">
<g clip-path="url(#clip0)">
<path d="M26.4564 12.9631C26.1494 9.89729 24.8219 7.00617 22.7191 4.82222C20.2695 2.2784 17.0048 0.877441 13.5265 0.877441C10.0479 0.877441 6.78327 2.2784 4.33366 4.82222C1.87831 7.37222 0.526062 10.7625 0.526062 14.3684C0.526062 17.9745 1.87831 21.3647 4.33386 23.9145C6.78922 26.4645 10.0539 27.8688 13.5265 27.8688C13.7397 27.8688 13.9125 27.6892 13.9125 27.4677C13.9125 27.2463 13.7397 27.0669 13.5265 27.0669C10.2602 27.0669 7.18952 25.746 4.87996 23.3474C2.5704 20.9491 1.29829 17.7603 1.29829 14.3684C1.29829 10.9767 2.57021 7.78771 4.87976 5.38932C7.18356 2.99691 10.2542 1.67937 13.5265 1.67937C16.7985 1.67937 19.8692 2.99691 22.173 5.38932C24.1509 7.44349 25.3994 10.1626 25.6884 13.0461C25.9732 15.8888 25.322 18.7746 23.8543 21.1719C23.5456 21.6762 23.042 22.0027 22.4723 22.0678C22.0385 22.1175 21.611 22.0087 21.2539 21.7666L22.1357 20.8508C22.6607 20.3055 22.6607 19.4183 22.1357 18.8733L21.7961 18.5204C21.6451 18.3638 21.4007 18.3638 21.25 18.5204C21.099 18.6769 21.099 18.9307 21.25 19.0875L21.5896 19.4404C21.8135 19.6729 21.8135 20.0513 21.5896 20.2837L20.861 21.0405L17.4332 17.4809L18.1622 16.7241C18.386 16.4916 18.7504 16.4916 18.9743 16.7239L19.9632 17.751C20.1139 17.9078 20.3583 17.9078 20.5093 17.7512C20.66 17.5944 20.66 17.3407 20.5093 17.1841L19.5204 16.157C18.9954 15.6118 18.141 15.6118 17.6159 16.157L16.3117 17.5114C15.7884 18.0548 14.9366 18.0548 14.4133 17.5114L10.4998 13.4474C10.2463 13.1841 10.1067 12.8339 10.1067 12.4615C10.1067 12.0893 10.2463 11.7391 10.4996 11.476L10.7984 11.1658C10.7995 11.1646 10.8009 11.1635 10.8021 11.1621C10.8035 11.1609 10.8045 11.1594 10.8057 11.1582L11.8041 10.1214C12.3289 9.57614 12.3289 8.68913 11.8041 8.14387L9.18823 5.42784C8.66316 4.88278 7.80901 4.88278 7.28394 5.42784L6.28378 6.46667C6.28319 6.46708 6.28259 6.4677 6.282 6.46811C6.2814 6.46893 6.28081 6.46976 6.28002 6.47058C5.14656 7.64866 4.52231 9.21421 4.52231 10.8797C4.52231 12.5462 5.14736 14.1129 6.2822 15.2912L7.62552 16.686C7.77628 16.8428 8.02066 16.8428 8.17142 16.686C8.32237 16.5295 8.32237 16.2757 8.17142 16.1191L6.82829 14.7241C5.83945 13.6975 5.29474 12.3321 5.29474 10.8799C5.29474 9.56214 5.74324 8.31587 6.56506 7.32916L9.98288 10.8784L9.95372 10.9087C9.12912 11.765 9.12912 13.1582 9.95372 14.0145L13.8673 18.0785C14.2795 18.5068 14.821 18.7208 15.3625 18.7208C15.9041 18.7206 16.4456 18.5068 16.8576 18.0787L16.8871 18.048L20.3044 21.5967C19.7325 22.1088 19.0592 22.4893 18.3362 22.7052C17.8589 22.8475 17.3723 22.9167 16.8893 22.9167C15.5184 22.9167 14.1791 22.3578 13.1839 21.324L9.48439 17.4824C9.33364 17.3258 9.08905 17.3258 8.9383 17.4824C8.78754 17.6389 8.78754 17.8927 8.9383 18.0495L12.6378 21.8911C13.78 23.0776 15.3163 23.7188 16.8895 23.7188C17.4434 23.7188 18.0022 23.6391 18.5494 23.476C19.3233 23.2451 20.0473 22.85 20.6733 22.3218C21.2079 22.7459 21.8768 22.9429 22.5568 22.8652C23.3606 22.7733 24.0711 22.3131 24.5061 21.6023C26.0667 19.0529 26.7593 15.9848 26.4564 12.9631ZM7.10144 6.75176L7.83023 5.99494C8.05419 5.76238 8.41838 5.76238 8.64234 5.99494L11.258 8.71076C11.4819 8.94333 11.4819 9.32174 11.258 9.55431L10.5292 10.3111L7.10144 6.75176Z" fill="#FFD422"/>
<path d="M14.6393 10.0402C16.1607 10.0402 17.3985 11.3256 17.3985 12.9056C17.3985 13.127 17.5713 13.3067 17.7845 13.3067C17.9978 13.3067 18.1707 13.127 18.1707 12.9056C18.1707 10.8833 16.5864 9.23828 14.6393 9.23828C14.426 9.23828 14.2531 9.4177 14.2531 9.63914C14.2531 9.86079 14.426 10.0402 14.6393 10.0402Z" fill="#FFD422"/>
<path d="M14.6393 8.02801C17.2295 8.02801 19.3367 10.2163 19.3367 12.9061C19.3367 13.1276 19.5095 13.3072 19.7228 13.3072C19.936 13.3072 20.109 13.1276 20.109 12.9061C20.109 9.77401 17.6552 7.22607 14.6393 7.22607C14.426 7.22607 14.2531 7.40549 14.2531 7.62714C14.2531 7.84859 14.426 8.02801 14.6393 8.02801Z" fill="#FFD422"/>
<path d="M14.6393 6.03582C18.2872 6.03582 21.2551 9.11769 21.2551 12.9061C21.2551 13.1276 21.4281 13.3072 21.6413 13.3072C21.8546 13.3072 22.0273 13.1276 22.0273 12.9061C22.0273 8.67563 18.7131 5.23389 14.6393 5.23389C14.426 5.23389 14.2531 5.41331 14.2531 5.63475C14.2531 5.85619 14.426 6.03582 14.6393 6.03582Z" fill="#FFD422"/>
</g>
<defs>
<clipPath id="clip0">
<rect width="26" height="27" fill="white" transform="translate(0.526062 0.824219)"/>
</clipPath>
</defs>
</svg>
