<svg width="26" height="26" viewBox="0 0 26 26" fill="none" xmlns="http://www.w3.org/2000/svg">
<g clip-path="url(#clip0)">
<path d="M13.0261 25.8242C6.13348 25.8242 0.526062 20.2168 0.526062 13.3242C0.526062 6.43163 6.13348 0.824219 13.0261 0.824219C19.9186 0.824219 25.5261 6.43163 25.5261 13.3242C25.5261 20.2168 19.9186 25.8242 13.0261 25.8242ZM13.0261 1.65754C6.59315 1.65754 1.35938 6.8913 1.35938 13.3242C1.35938 19.7571 6.59315 24.9909 13.0261 24.9909C19.459 24.9909 24.6927 19.7571 24.6927 13.3242C24.6927 6.8913 19.459 1.65754 13.0261 1.65754Z" fill="#FFD422"/>
<path d="M14.4411 22.2436C13.8748 22.2436 13.3419 21.9027 13.1211 21.3502L12.6644 20.2086C12.6406 20.1499 12.6211 20.0886 12.6053 20.0261L11.8153 16.8656C11.8048 16.824 11.7897 16.784 11.7707 16.7456L11.3465 15.8978C11.2227 15.6499 10.949 15.5257 10.6795 15.5907L10.2761 15.6914C9.84824 15.7983 9.38781 15.6981 9.04391 15.4227L7.72517 14.3681C7.38643 14.0965 7.19226 13.6924 7.19226 13.259V12.8127C7.19226 12.5148 7.284 12.2298 7.457 11.9878L9.05307 9.75311C9.31934 9.38022 9.75154 9.1582 10.2089 9.1582H11.0812C11.3394 9.1582 11.5923 9.22858 11.8122 9.36115L13.3236 10.2677C13.4489 10.3436 13.5973 10.3694 13.7406 10.3402L14.6445 10.159C15.2998 10.0278 15.9657 10.3785 16.2285 10.9927L17.0298 12.8623C17.0782 12.9748 17.1623 13.0715 17.2669 13.1335L18.0878 13.6265C18.4389 13.8373 18.6823 14.1898 18.7548 14.5928C18.8273 14.9966 18.722 15.4114 18.466 15.7315L17.7368 16.6432C17.6541 16.747 17.6081 16.8774 17.6081 17.0098V18.3253C17.6081 18.6993 17.4565 19.0657 17.1919 19.3299L16.7403 19.7816C16.7061 19.8157 16.6765 19.8537 16.6519 19.8945L15.6565 21.5537C15.4824 21.8436 15.2094 22.0628 14.8882 22.1698C14.7412 22.2203 14.5899 22.2436 14.4411 22.2436ZM10.8277 14.7389C11.3552 14.7389 11.846 15.0328 12.0922 15.5253L12.5164 16.3731C12.5628 16.4656 12.599 16.5637 12.624 16.664L13.414 19.8245C13.4203 19.8498 13.4285 19.8745 13.4383 19.8987L13.8953 21.0416C14.0106 21.329 14.3307 21.4778 14.6261 21.3803C14.7585 21.3357 14.8714 21.2453 14.9439 21.1249L15.939 19.4661C15.9985 19.3673 16.0702 19.2754 16.1524 19.1931L16.6045 18.7407C16.7139 18.6314 16.7765 18.4802 16.7765 18.3257V17.0102C16.7765 16.689 16.8869 16.3745 17.0878 16.1233L17.8173 15.2116C17.9249 15.0773 17.9669 14.9102 17.9369 14.741C17.9064 14.5718 17.8086 14.4299 17.6611 14.3414L16.8406 13.8489C16.5837 13.6952 16.3849 13.4677 16.2661 13.1911L15.4644 11.3211C15.3557 11.0673 15.0807 10.9233 14.8098 10.9765L13.9057 11.1577C13.5582 11.2282 13.1998 11.1649 12.896 10.9828L11.384 10.0756C11.2927 10.0207 11.1885 9.99191 11.0819 9.99191H10.2099C10.0207 9.99191 9.84233 10.084 9.73228 10.2378L8.13602 12.4724C8.06449 12.5724 8.02653 12.6902 8.02653 12.8133V13.2594C8.02653 13.4387 8.10683 13.6058 8.24683 13.7181L9.56519 14.7723C9.70729 14.8862 9.89822 14.9285 10.0748 14.8837L10.4777 14.7832C10.5944 14.7532 10.7119 14.7389 10.8277 14.7389Z" fill="#FFD422"/>
<path d="M19.2761 21.658C19.166 21.658 19.0602 21.6145 18.9816 21.5359L18.1481 20.7026C18.0498 20.6042 18.0069 20.4629 18.0344 20.3263L18.4512 18.2429C18.4674 18.1626 18.5068 18.0884 18.5648 18.03L19.8149 16.78C19.9236 16.6712 20.0837 16.6308 20.2303 16.6758C20.3774 16.7201 20.4878 16.8421 20.5178 16.993L20.9343 19.0762C20.9547 19.1779 20.9364 19.2834 20.8832 19.3726L19.6331 21.4558C19.5673 21.5659 19.454 21.6391 19.327 21.655C19.3098 21.6567 19.2927 21.658 19.2761 21.658ZM18.8948 20.2708L19.1931 20.5697L20.0858 19.0821L19.8532 17.92L19.2427 18.5305L18.8948 20.2708Z" fill="#FFD422"/>
<path d="M23.8577 12.4C23.2031 12.4 22.6173 11.9508 22.4514 11.2938C22.3535 10.9054 22.2311 10.5724 22.088 10.3033C21.9973 10.1324 21.834 10.0233 21.6394 10.0033C21.4264 9.98208 21.2189 10.0687 21.081 10.2354C20.2423 11.2491 19.4252 11.718 18.6502 11.6304C17.7111 11.5228 17.2552 10.6321 17.2361 10.5941C15.3051 6.73196 11.8557 7.06574 11.8216 7.07204C11.8061 7.07375 11.791 7.07452 11.7756 7.07452C11.544 7.07452 11.2869 7.1304 11.0123 7.23988C10.0914 7.60838 9.07402 7.33201 8.48026 6.55286C7.89852 5.78877 7.90195 4.79543 8.48903 4.02295L8.53729 3.96001C8.82988 3.58407 9.27734 3.34489 9.7639 3.30541C11.3348 3.1778 12.5027 2.42211 13.2357 1.05874C13.3114 0.917406 13.4623 0.831193 13.6223 0.839967C19.7048 1.12588 24.6685 5.71744 25.4248 11.7578C25.4518 11.9754 25.3061 12.1771 25.0906 12.2183C24.7536 12.2837 24.4026 12.3409 24.0477 12.3878C23.9839 12.3958 23.9202 12.4 23.8577 12.4ZM21.5752 9.16669C21.6248 9.16669 21.6743 9.16955 21.7239 9.17451C22.1998 9.22295 22.6005 9.49208 22.8239 9.91208C22.9986 10.2403 23.1453 10.6367 23.2593 11.0895C23.3377 11.3996 23.629 11.6029 23.9372 11.5616C24.1411 11.5345 24.3435 11.5038 24.5422 11.4704C23.6898 6.10997 19.2665 2.05781 13.8372 1.68664C13.1973 2.75495 12.0018 3.95905 9.83181 4.13587C9.57737 4.15666 9.34524 4.27911 9.19475 4.47251L9.15355 4.52573C8.72268 5.0924 8.8665 5.6833 9.14364 6.04779C9.4244 6.41667 10.001 6.74798 10.7031 6.46626C11.0689 6.31997 11.4227 6.24463 11.7548 6.2412C11.9232 6.22575 12.8702 6.167 14.0476 6.57708C15.2136 6.98296 16.8426 7.94408 17.9815 10.2216C17.9827 10.2245 18.2602 10.7507 18.7498 10.8034C19.2202 10.8621 19.8027 10.4742 20.439 9.70456C20.7228 9.36162 21.1389 9.16669 21.5752 9.16669Z" fill="#FFD422"/>
<path d="M2.02179 12.4907H1.00689C0.889017 12.4907 0.776483 12.4408 0.69771 12.3532C0.618936 12.2657 0.580598 12.1491 0.592805 12.0316C0.833513 9.68941 1.73359 7.4683 3.19653 5.6073C3.3186 5.45205 3.53317 5.4036 3.71018 5.49248L5.27439 6.27449C5.92804 6.60161 6.39057 7.22741 6.51055 7.94858L6.54278 8.13912C6.70891 9.13819 6.21224 10.114 5.30644 10.567L4.49143 10.9744C4.26483 11.0879 4.07067 11.2595 3.92971 11.4703C3.50361 12.1091 2.79064 12.4907 2.02179 12.4907ZM1.47762 11.6574H2.02179C2.51103 11.6574 2.96517 11.4144 3.23639 11.0074C3.45726 10.6757 3.76263 10.4066 4.11892 10.2282L4.93393 9.82064C5.51071 9.53282 5.82695 8.91121 5.72109 8.2753L5.68905 8.08495C5.68905 8.08438 5.68905 8.08438 5.68905 8.08438C5.61238 7.62528 5.31807 7.22741 4.90189 7.01912L3.64609 6.39122C2.49405 7.94705 1.75057 9.75274 1.47762 11.6574Z" fill="#FFD422"/>
<path d="M5.62265 23.2869C5.53148 23.2869 5.44146 23.2573 5.36688 23.1996C2.63689 21.0786 0.891857 17.8969 0.580196 14.4704C0.563602 14.2903 0.665263 14.1208 0.831012 14.0494L1.26722 13.8623C2.14022 13.4883 3.13814 13.6807 3.80972 14.3523L4.58181 15.1244C4.78857 15.3312 5.0493 15.4708 5.33598 15.5282C6.41191 15.7437 7.19221 16.6957 7.19221 17.7928V17.9082C7.19221 18.5361 7.00853 19.1436 6.66025 19.6652C6.45388 19.9744 6.3236 20.3336 6.28222 20.7025L6.03636 22.9165C6.01976 23.0662 5.92344 23.1957 5.78478 23.2545C5.73271 23.2762 5.67778 23.2869 5.62265 23.2869ZM1.44136 14.6945C1.77477 17.5275 3.15683 20.1598 5.29402 22.0561L5.45443 20.6099C5.51012 20.1091 5.68731 19.6223 5.96693 19.2023C6.22347 18.8178 6.35889 18.3703 6.35889 17.9078V17.7924C6.35889 17.0911 5.86012 16.4824 5.17233 16.3449C4.72353 16.2553 4.31517 16.0369 3.99225 15.7132L3.22016 14.9411C2.79062 14.5123 2.15319 14.3891 1.59529 14.6277L1.44136 14.6945Z" fill="#FFD422"/>
</g>
<defs>
<clipPath id="clip0">
<rect width="25" height="25" fill="white" transform="translate(0.526062 0.824219)"/>
</clipPath>
</defs>
</svg>
